{"title":"Funny Pics Compilation Part 8","uid":15981489,"size":178351899,"categoryP":"other","categoryS":"pictures","magnet":"?xt=urn:btih:2b8e03315f01f89988798af14e83fe41ccb35e68&amp;dn=Funny+Pics+Compilation+Part+8&amp;tr=udp%3A%2F%2Ftracker.leechers-paradise.org%3A6969&amp;tr=udp%3A%2F%2Fzer0day.ch%3A1337&amp;tr=udp%3A%2F%2Fopen.demonii.com%3A1337&amp;tr=udp%3A%2F%2Ftracker.coppersurfer.tk%3A6969&amp;tr=udp%3A%2F%2Fexodus.desync.com%3A6969","seeders":7,"leechers":3,"uploader":"nico1899","files":3,"time":1475900987,"description":"Funny Pics Compilation Part 8\r\n\r\nScreenshots\r\n    \nhttp://imgprix.com/video/funny-pics-compilation-part-8\r\n\r\nFormat                                   : MPEG-4\r\nFormat profile                           : Base Media / Version 2\r\nCodec ID                                 : mp42 (mp41/isom)\r\nFile size                                : 170 MiB\r\nDuration                                 : 10 min 57 s\r\nOverall bit rate                         : 2 170 kb/s\r\nEncoded date                             : UTC 2016-10-08 02:08:52\r\nTagged date                              : UTC 2016-10-08 02:08:52\r\n\r\nVideo\r\nID                                       : 1\r\nFormat                                   : AVC\r\nFormat/Info                              : Advanced Video Codec\r\nFormat profile                           :   \r\nFormat settings, CABAC                   : No\r\nFormat settings, ReFrames                : 2 frames\r\nFormat settings, GOP                     : M=1, N=30\r\nCodec ID                                 : avc1\r\nCodec ID/Info                            : Advanced Video Coding\r\nDuration                                 : 10 min 57 s\r\nSource duration                          : 10 min 57 s\r\nBit rate                                 : 1 974 kb/s\r\nWidth                                    : 1 920 pixels\r\nHeight                                   : 1 080 pixels\r\nDisplay aspect ratio                     : 16:9\r\nFrame rate mode                          : Constant\r\nFrame rate                               : 29.970 (29970/1000) FPS\r\nColor space                              : YUV\r\nChroma subsampling                       : 4:2:0\r\nBit depth                                : 8 bits\r\nScan type                                : Progressive\r\nBits/(Pixel*Frame)                       : 0.032\r\nStream size                              : 155 MiB (91%)\r\nSource stream size                       : 155 MiB (91%)\r\nEncoded date                             : UTC 2016-10-08 02:08:52\r\nTagged date                              : UTC 2016-10-08 02:08:52\r\nmdhd_Duration                            : 657590\r\n\r\nAudio\r\nID                                       : 2\r\nFormat                                   : AAC\r\nFormat/Info                              : Advanced Audio Codec\r\nFormat profile                           : LC\r\nCodec ID                                 : 40\r\nDuration                                 : 10 min 57 s\r\nBit rate mode                            : Constant\r\nBit rate                                 : 192 kb/s\r\nChannel(s)                               : 2 channels\r\nChannel positions                        : Front: L R\r\nSampling rate                            : 48.0 kHz\r\nFrame rate                               : 46.875 FPS (1024 spf)\r\nCompression mode                         : Lossy\r\nStream size                              : 15.1 MiB (9%)\r\nEncoded date                             : UTC 2016-10-08 02:08:52\r\nTagged date                              : UTC 2016-10-08 02:08:52\r\nmdhd_Duration                            : 657600","torrent":{"xt":"urn:btih:2b8e03315f01f89988798af14e83fe41ccb35e68","amp;dn":"Funny+Pics+Compilation+Part+8","amp;tr":["udp%3A%2F%2Ftracker.leechers-paradise.org%3A6969","udp%3A%2F%2Fzer0day.ch%3A1337","udp%3A%2F%2Fopen.demonii.com%3A1337","udp%3A%2F%2Ftracker.coppersurfer.tk%3A6969","udp%3A%2F%2Fexodus.desync.com%3A6969"],"infoHash":"2b8e03315f01f89988798af14e83fe41ccb35e68","infoHashBuffer":{"type":"Buffer","data":[43,142,3,49,95,1,248,153,136,121,138,241,78,131,254,65,204,179,94,104]},"announce":[],"urlList":[]}}